<svg width="20" height="20" viewBox="0 0 20 20" fill="none" xmlns="http://www.w3.org/2000/svg">
<path d="M12.7907 20H7.2093C2.15814 20 0 17.8419 0 12.7907V7.2093C0 2.15814 2.15814 0 7.2093 0H12.7907C17.8419 0 20 2.15814 20 7.2093V12.7907C20 17.8419 17.8419 20 12.7907 20ZM7.2093 1.39535C2.92093 1.39535 1.39535 2.92093 1.39535 7.2093V12.7907C1.39535 17.0791 2.92093 18.6047 7.2093 18.6047H12.7907C17.0791 18.6047 18.6047 17.0791 18.6047 12.7907V7.2093C18.6047 2.92093 17.0791 1.39535 12.7907 1.39535H7.2093Z" fill="#333333"/>
<path d="M10.0004 13.9539C7.82362 13.9539 6.04688 12.1771 6.04688 10.0004C6.04688 7.82362 7.82362 6.04688 10.0004 6.04688C12.1771 6.04688 13.9539 7.82362 13.9539 10.0004C13.9539 12.1771 12.1771 13.9539 10.0004 13.9539ZM10.0004 7.44222C8.58641 7.44222 7.44222 8.58641 7.44222 10.0004C7.44222 11.4143 8.58641 12.5585 10.0004 12.5585C11.4143 12.5585 12.5585 11.4143 12.5585 10.0004C12.5585 8.58641 11.4143 7.44222 10.0004 7.44222Z" fill="#333333"/>
<path d="M14.6509 5.81441C14.53 5.81441 14.4091 5.7865 14.2974 5.73999C14.1858 5.69348 14.0835 5.62836 13.9905 5.54464C13.9068 5.45162 13.8323 5.34929 13.7858 5.23767C13.7393 5.12604 13.7207 5.00511 13.7207 4.88418C13.7207 4.76325 13.7393 4.64232 13.7858 4.53069C13.8416 4.40976 13.9068 4.31673 13.9905 4.22371C14.037 4.1865 14.0835 4.13999 14.13 4.11208C14.1858 4.07487 14.2416 4.04697 14.2974 4.02836C14.3533 4.00046 14.4091 3.98185 14.4742 3.97255C14.7719 3.90743 15.0881 4.00976 15.3114 4.22371C15.3951 4.31673 15.4602 4.40976 15.5067 4.53069C15.5533 4.64232 15.5812 4.76325 15.5812 4.88418C15.5812 5.00511 15.5533 5.12604 15.5067 5.23767C15.4602 5.34929 15.3951 5.45162 15.3114 5.54464C15.2184 5.62836 15.1161 5.69348 15.0044 5.73999C14.8928 5.7865 14.7719 5.81441 14.6509 5.81441Z" fill="#333333"/>
</svg>
