<svg width="29" height="30" viewBox="0 0 29 30" fill="none" xmlns="http://www.w3.org/2000/svg">
<path d="M21.5427 29.1466H7.45729C3.69401 29.1466 1.30164 26.9021 1.0866 23.1522L0.387702 12.064C0.28018 10.384 0.858112 8.77114 2.01398 7.54807C3.1564 6.325 4.76923 5.62611 6.43583 5.62611C6.86592 5.62611 7.28256 5.37075 7.48417 4.96754L8.45187 3.04558C9.24485 1.47307 11.234 0.25 12.9678 0.25H16.0456C17.7794 0.25 19.7552 1.47307 20.5481 3.03214L21.5158 4.99442C21.7174 5.37075 22.1206 5.62611 22.5642 5.62611C24.2308 5.62611 25.8436 6.325 26.986 7.54807C28.1419 8.78458 28.7198 10.384 28.6123 12.064L27.9134 23.1657C27.6715 26.9693 25.3463 29.1466 21.5427 29.1466ZM12.9678 2.26604C11.9732 2.26604 10.7098 3.04558 10.2529 3.94608L9.28517 5.88148C8.72067 6.97014 7.63201 7.64215 6.43583 7.64215C5.30684 7.64215 4.25849 8.09912 3.47897 8.91898C2.71287 9.73884 2.3231 10.8141 2.40374 11.9296L3.10264 23.0313C3.26391 25.7462 4.72891 27.1306 7.45729 27.1306H21.5427C24.2576 27.1306 25.7226 25.7462 25.8974 23.0313L26.5963 11.9296C26.6635 10.8141 26.2871 9.73884 25.521 8.91898C24.7415 8.09912 23.6932 7.64215 22.5642 7.64215C21.368 7.64215 20.2793 6.97014 19.7148 5.90836L18.7337 3.94608C18.2902 3.05902 17.0268 2.27948 16.0322 2.27948H12.9678V2.26604Z" fill="#333333"/>
<path d="M16.5167 10.3271H12.4846C11.9335 10.3271 11.4766 9.87011 11.4766 9.31906C11.4766 8.768 11.9335 8.31104 12.4846 8.31104H16.5167C17.0677 8.31104 17.5247 8.768 17.5247 9.31906C17.5247 9.87011 17.0677 10.3271 16.5167 10.3271Z" fill="#333333"/>
<path d="M14.5006 23.7727C11.5303 23.7727 9.12451 21.3669 9.12451 18.3966C9.12451 15.4263 11.5303 13.0205 14.5006 13.0205C17.4709 13.0205 19.8767 15.4263 19.8767 18.3966C19.8767 21.3669 17.4709 23.7727 14.5006 23.7727ZM14.5006 15.0365C12.6459 15.0365 11.1406 16.5419 11.1406 18.3966C11.1406 20.2514 12.6459 21.7567 14.5006 21.7567C16.3554 21.7567 17.8607 20.2514 17.8607 18.3966C17.8607 16.5419 16.3554 15.0365 14.5006 15.0365Z" fill="#333333"/>
</svg>
