<svg width="23" height="18" viewBox="0 0 23 18" fill="none" xmlns="http://www.w3.org/2000/svg">
<path d="M16.225 0H8.75569V3.33906C8.75569 3.77027 8.40107 4.11302 7.97995 4.11302C7.55884 4.11302 7.20421 3.77027 7.20421 3.33906V0H5.9187C1.54133 0 0.100669 1.30466 0.000931242 5.3845C-0.0101507 5.58352 0.0785051 5.79359 0.222571 5.93733C0.366636 6.09212 0.55503 6.16951 0.776669 6.16951C2.32815 6.16951 3.60257 7.4521 3.60257 9.00001C3.60257 10.5479 2.32815 11.8305 0.776669 11.8305C0.566112 11.8305 0.366636 11.9079 0.222571 12.0627C0.0785051 12.2064 -0.0101507 12.4165 0.000931242 12.6155C0.100669 16.6953 1.54133 18 5.9187 18H7.20421V14.6609C7.20421 14.2297 7.55884 13.887 7.97995 13.887C8.40107 13.887 8.75569 14.2297 8.75569 14.6609V18H16.225C20.7686 18 22.1538 16.6179 22.1538 12.0848V5.91523C22.1538 1.38206 20.7686 0 16.225 0ZM18.2419 8.88945L17.2113 9.88453C17.167 9.9177 17.1559 9.98404 17.167 10.0393L17.4108 11.4435C17.4551 11.6978 17.3554 11.9632 17.1337 12.1179C16.9232 12.2727 16.6461 12.2948 16.4134 12.1732L15.139 11.5098C15.0946 11.4877 15.0281 11.4877 14.9838 11.5098L13.7094 12.1732C13.6096 12.2285 13.4988 12.2506 13.388 12.2506C13.2439 12.2506 13.111 12.2064 12.9891 12.1179C12.7785 11.9632 12.6677 11.7089 12.712 11.4435L12.9558 10.0393C12.9669 9.98404 12.9447 9.92876 12.9115 9.88453L11.8809 8.88945C11.6925 8.71254 11.626 8.43613 11.7035 8.19289C11.7811 7.93859 11.9917 7.76168 12.2576 7.72851L13.6761 7.51844C13.7315 7.50738 13.7759 7.47421 13.8091 7.42999L14.4408 6.14741C14.5627 5.91523 14.7954 5.77149 15.0614 5.77149C15.3274 5.77149 15.5601 5.91523 15.6709 6.14741L16.3026 7.42999C16.3247 7.48527 16.3691 7.51844 16.4245 7.51844L17.843 7.72851C18.1089 7.76168 18.3195 7.94964 18.3971 8.19289C18.4968 8.43613 18.4303 8.70149 18.2419 8.88945Z" fill="#999999"/>
</svg>
