<svg width="20" height="20" viewBox="0 0 20 20" fill="none" xmlns="http://www.w3.org/2000/svg">
<path d="M18.032 4.8183L12.2777 0.787832C10.7093 -0.312296 8.30168 -0.252289 6.79322 0.917846L1.78821 4.8283C0.789212 5.60839 0 7.20857 0 8.46867V15.3695C0 17.9198 2.06794 20 4.61539 20H15.3846C17.9321 20 20 17.9298 20 15.3795V8.59868C20 7.24858 19.1309 5.58839 18.032 4.8183ZM10.7492 15.9995C10.7492 16.4096 10.4096 16.7496 9.99999 16.7496C9.59039 16.7496 9.25073 16.4096 9.25073 15.9995V12.9992C9.25073 12.5891 9.59039 12.2491 9.99999 12.2491C10.4096 12.2491 10.7492 12.5891 10.7492 12.9992V15.9995Z" fill="#999999"/>
</svg>
