<svg width="20" height="20" viewBox="0 0 20 20" fill="none" xmlns="http://www.w3.org/2000/svg">
<path opacity="0.4" d="M19.9993 5.8098V14.1895C19.9993 16.9994 18.7093 18.9293 16.4394 19.6593C15.7794 19.8893 15.0195 19.9993 14.1895 19.9993H5.8098C4.97982 19.9993 4.21985 19.8893 3.55987 19.6593C1.28995 18.9293 0 16.9994 0 14.1895V5.8098C0 2.16992 2.16992 0 5.8098 0H14.1895C17.8294 0 19.9993 2.16992 19.9993 5.8098Z" fill="#999999"/>
<path d="M16.4401 19.6601C15.7802 19.89 15.0202 20 14.1902 20H5.81047C4.9805 20 4.22052 19.89 3.56055 19.6601C3.91053 17.0201 6.67044 14.9702 10.0003 14.9702C13.3302 14.9702 16.0902 17.0201 16.4401 19.6601Z" fill="#999999"/>
<path d="M13.5796 9.57817C13.5796 11.5581 11.9797 13.168 9.99978 13.168C8.01985 13.168 6.41992 11.5581 6.41992 9.57817C6.41992 7.59825 8.01985 5.99829 9.99978 5.99829C11.9797 5.99829 13.5796 7.59825 13.5796 9.57817Z" fill="#999999"/>
</svg>
